<svg xmlns="http://www.w3.org/2000/svg" width="24" height="24" viewBox="0 0 24 24" fill="#5A65F2"><path d="M808.188 251.142c-55.241-24.281-114.304-41.928-176.047-51.975-7.586 12.881-16.448 30.206-22.554 43.988-65.643-9.274-130.679-9.274-195.111 0-6.107-13.783-15.169-31.107-22.819-43.988-61.815 10.047-120.946 27.759-176.184 52.104C104.058 409.45 73.855 563.7 88.957 715.76c73.897 51.849 145.511 83.341 215.917 103.949 17.384-22.477 32.887-46.37 46.244-71.552a468.136 468.136 0 0 1-72.823-33.297 358.264 358.264 0 0 0 17.853-13.269c140.412 61.7 292.967 61.7 431.702 0a430.526 430.526 0 0 0 17.852 13.269 466.694 466.694 0 0 1-72.96 33.361c13.359 25.118 28.796 49.075 46.246 71.552 70.473-20.608 142.153-52.1 216.051-104.013 17.719-176.277-30.272-329.109-126.852-464.617zm-437.942 371.1c-42.15 0-76.716-36.966-76.716-81.984 0-45.022 33.827-82.052 76.716-82.052s77.451 36.966 76.713 82.052c.073 45.018-33.824 81.984-76.713 81.984zm283.505 0c-42.15 0-76.719-36.966-76.719-81.984 0-45.022 33.83-82.052 76.719-82.052 42.884 0 77.453 36.966 76.715 82.052 0 45.018-33.83 81.984-76.715 81.984z"/></svg>