<svg xmlns="http://www.w3.org/2000/svg" width="72" height="50" viewBox="0 0 72 50" fill="currentColor"><path d="M10.76 748.2h96.706c57.182 0 92.902 26.509 92.531 67.08-.159 17.463 0 39.254-21.691 59.195 15.021 0 32.253 21.244 32.253 63.371 0 53.567-30.041 82.25-77.245 82.25H10.76V748.199zm59.322 58.255v49.361h46.831c17.322 0 21.461-15.239 21.461-23.175v-1.882c0-15.479-5.839-23.552-21.461-23.552l-46.831-.752zm0 100.758v58.409h54.917c13.127 0 18.081-13.992 18.081-26.339v-4.053c0-18.643-8.509-27.656-24.202-27.656l-48.796-.36zM278.811 899.244 189.04 748.2h78.058l43.33 88.596 47.628-88.596h71.033l-87.046 151.044v120.838h-63.232V899.244zM889.876 836.069c0 54.901-42.002 99.08-133.63 99.08V1020h-64.047V748.599h97.253c75.141 0 100.424 32.565 100.424 87.47zm-133.629 48.368h22.344c28.822 0 51.431-16.779 51.431-48.368 0-31.592-18.381-40.212-51.431-40.212h-22.344v88.58zM10.76 711.586V355.76h90.567l103.801 190.382L314.59 355.76h90.567v355.826H314.59v-162.57l-109.462 162.57-103.801-162.57v162.57H10.76zM516.6 355.76h123.263l89.93 355.826h-80.04L628.7 645.411H524.934l-19.479 66.175H423.84L516.6 355.76zm61.641 93.899-40.78 130.298h78.553l-37.773-130.298zM1046.96 355.777h253.921V436.2h-173.066v55.998h173.066v78.385h-173.066v66.687h173.066v74.316H1046.96V355.777zM903.999 748.595h193.675v61.35h-132v42.709h132v59.795h-132v50.866h132v56.68H903.999V748.594zM515.41 748.595h94.015l68.594 271.401H616.98l-16.065-50.473H521.76l-14.862 50.473h-62.259l70.771-271.401zm47.024 71.631-31.101 99.373h59.922l-28.822-99.373zM862.626 712.098l-115.266-.326V355.946l115.266-1.112c107.993 0 165.671 52.269 165.671 181.318 0 98.996-55.359 175.946-165.671 175.946zm-35.916-76.95h35.916c50.405 0 81.154-32.053 81.154-98.996 0-66.945-23.99-98.159-81.154-98.159H826.71v197.155zM1120.733 824.07c0-42.33 30.347-73.083 79.442-77.273 40.974-3.508 78.303 11.321 106.625 30.102l-25.883 57.502s-28.959-16.761-45.982-22.131c-13.357-4.225-31.117-.24-34.761 8.808s-2.97 18.301 8.827 24.22c.942.477 1.995.991 3.144 1.573 6.517 3.215 16.349 8.09 27.496 14.862h.184s23.949 12.878 42.654 33.575a167.955 167.955 0 0 1 4.489 4.841h-.315c10.029 12.366 17.652 27.075 17.652 43.237 0 42.314-34.978 75.991-84.072 80.181-40.972 3.506-78.422-15.17-106.754-33.95l20.015-57.588s39.596 17.768 56.599 23.157c13.357 4.225 31.117.24 34.761-8.808 3.641-9.048 4.108-15.495-8.827-24.22-4.033-2.718-8.868-5.54-14.334-8.722-4.088-2.378-8.522-4.958-13.226-7.866-5.118-2.685-67.787-36.448-67.787-81.5h.053zM1408.721 414.173V354.84h14.225l17.748 31.744 16.947-31.744h16.859v59.333h-14.225v-29.282l-19.581 29.282-16.859-29.282v29.282h-15.114zM1349.439 367.321v-12.487h53.93v12.487h-19.657v46.846h-14.432v-46.846h-19.841zM306.272 27.332l-30.589-5.046c-1.786-.291-2.089-2.6-.442-3.301C346.329-11.22 421.29 1.146 475.925 48.574c1.946 1.693 1.434 4.755-.885 5.935-9.837 5.011-20.771 12.297-25.653 15.667-1.503 1.043-3.574.855-4.901-.376-35.013-32.411-99.766-36.824-138.213-42.486v.017zM1005.41 27.332l30.607-5.046c1.788-.291 2.089-2.6.442-3.301-71.105-30.205-146.067-17.839-200.7 29.589-1.948 1.693-1.434 4.755.885 5.935 9.837 5.011 20.771 12.297 25.653 15.667 1.503 1.043 3.574.855 4.901-.376 35.013-32.411 99.766-36.824 138.211-42.486v.017zM657.668 53.381c-49.15 0-76.644-12.075-125.014-12.776-1.628-.017-2.441-1.916-1.239-2.976C565.916 7.116 632.402.001 655.509.001c19.409 0 83.79 5.627 121.262 37.423 1.274 1.078.424 3.045-1.274 3.01-48.495-.753-48.847 12.93-117.848 12.93l.018.017zM48.199 302.653H18.281c-5.237 0-8.846-5.132-7.059-9.886 3.291-8.792 7.572-21.344 8.138-28.598.531-6.926.301-12.657.071-17.857-.442-10.484-.796-18.813 5.538-30.444 5.202-9.544 10.934-17.19 16.79-24.971 7.342-9.767 14.844-19.755 21.655-34.02 5.184-10.878 8.545-26.357 12.137-42.93 3.308-15.274 6.811-31.471 12.137-45.821 11.111-29.897 15.056-40.536 42.214-44.983 26.538-4.344 56.863 4.036 87.63 12.571 17.639 4.892 35.437 9.817 52.759 12.4 10.916 1.625 21.991 3.045 32.977 4.447 46.125 5.901 91.099 11.648 119.319 32.685 3.342 2.497 3.342 7.235.813 10.519-10.562 13.717-19.372 38.176-21.053 67.577-1.221 21.123 3.944 47.428 13.445 79.942 5.487 18.764-4.246 39.047-10.703 52.525-.426.874-.815 1.71-1.204 2.515-1.237 2.617-3.926 4.344-6.916 4.344H166.757c-4.07 0-7.361-3.199-7.555-7.131-1.627-33.661-14.985-68.79-49.415-68.79s-49.857 41.921-54.05 69.474a7.616 7.616 0 0 1-7.537 6.466v-.035zm58.208-117.177v-.018c12.633 13.17 58.88 19.208 84.002-6.499 29.335-30.017 31.297-93.198 1.84-110.148-11.676-6.722-31.951-8.415-31.951-8.415-29.423 0-35.456 23.227-41.843 47.805-1.628 6.243-3.273 12.589-5.326 18.643-1.875 5.559-4.458 10.81-6.935 15.872-7.289 14.898-13.782 28.187.212 42.76zm148.19 34.19c28.185 19.892 73.511 14.658 93.274-.735 25.989-20.252 31.775-88.068 9.73-107.856-23.777-21.328-49.625-23.689-77.545-10.758-31.562 14.624-45.115 105.495-25.475 119.35h.016zM1263.464 302.653h29.903c5.237 0 8.847-5.132 7.057-9.886-3.295-8.792-7.578-21.344-8.141-28.598-.532-6.926-.305-12.657-.066-17.857.434-10.484.791-18.813-5.542-30.444-5.204-9.544-10.938-17.19-16.794-24.971-7.34-9.767-14.844-19.755-21.651-34.02-5.183-10.878-8.544-26.357-12.134-42.93-3.305-15.274-6.82-31.471-12.143-45.821-11.112-29.897-15.049-40.536-42.209-44.983-26.542-4.344-56.869 4.036-87.628 12.571-17.644 4.892-35.441 9.817-52.763 12.4-10.916 1.625-21.991 3.045-32.977 4.447-46.125 5.901-91.099 11.648-119.319 32.685-3.342 2.497-3.342 7.235-.813 10.519 10.562 13.717 19.372 38.176 21.053 67.577 1.221 21.123-3.946 47.428-13.445 79.942-4.973 17.019 2.548 35.269 8.827 48.558 3.097 6.552 9.943 10.826 17.392 10.826h222.831c4.086 0 7.361-3.199 7.557-7.131 1.626-33.661 14.983-68.79 49.418-68.79 34.425 0 49.875 41.921 54.049 69.474.543 3.66 3.719 6.466 7.537 6.466v-.035zm-58.191-117.177v-.018c-12.63 13.17-58.874 19.208-84.007-6.499-29.327-30.017-31.289-93.198-1.831-110.148 11.676-6.722 31.951-8.415 31.951-8.415 29.415 0 35.455 23.227 41.841 47.805 1.628 6.243 3.275 12.589 5.325 18.643 1.896 5.559 4.456 10.81 6.939 15.872 7.287 14.898 13.781 28.187-.217 42.76zm-148.19 34.19c-28.185 19.892-73.511 14.658-93.274-.735-25.989-20.252-31.775-88.068-9.73-107.856 23.779-21.328 49.627-23.689 77.545-10.758 31.562 14.624 45.115 105.495 25.477 119.35h-.018zM581.753 302.627v.016c3.342 0 6.298-2.171 7.395-5.233 5.396-15 24.257-57.143 66.044-57.143 41.791 0 60.652 42.144 66.03 57.143 1.096 3.078 4.033 5.233 7.395 5.233h150.331c2.988 0 4.741-3.283 3.148-5.728-19.124-29.403-14.473-48.781-8.262-74.523 4.352-18.044 9.447-39.218 7.643-69.184-2.726-45-29.192-73.324-78.66-83.706-25.706-5.388-58.917-.325-90.071 4.447-19.816 3.027-38.799 5.935-54.512 5.935-21.072 0-42.813-3.489-64.063-6.893-30.679-4.926-60.277-9.681-85.152-3.489-47.946 11.921-71.707 36.756-80.501 86.34-3.291 25.74 2.177 45.324 7.236 63.506 6.849 24.578 12.97 46.59-4.069 77.822-1.327 2.445.442 5.456 3.31 5.456h146.758zm-21.461-70.228c-29.387 16.71-67.602 16.454-82.428-16.556-16.826-37.509-.477-90.53 46.901-103.649 49.627-13.735 97.645-7.03 95.84 29.145-1.346 26.887-25.954 71.526-60.314 91.044v.016zm274.567-16.556c-14.809 33.01-53.043 33.249-82.428 16.556-34.359-19.534-58.968-64.173-60.314-91.043-1.804-36.174 46.211-42.879 95.838-29.145 47.362 13.119 63.728 66.14 46.903 103.648v-.016z"/></svg>