<svg xmlns="http://www.w3.org/2000/svg" width="100%" height="100%" viewBox="0 0 24 22.55" fill="none"><path fill="#F5841F" d="m19.617 11.988.809-.949-.352-.258.563-.515-.434-.329.563-.421-.364-.282.586-2.859-.89-2.648m0 0-5.72 2.12H9.61l-5.718-2.12L3 6.375l.598 2.86-.375.28.574.422-.434.329.563.515-.352.258.809.95-1.23 3.796 1.136 3.88 3.996-1.102.774.632 1.582 1.078h2.707l1.582-1.078.773-.633 4.008 1.102 1.148-3.879-1.242-3.797"/><path fill="#E27625" d="m20.098 3.727-7.02 5.168 1.3-3.047 5.72-2.121ZM3.89 3.727l6.962 5.214-1.243-3.093-5.718-2.121ZM17.578 15.715l-1.875 2.836 4.008 1.101 1.148-3.879-3.28-.058ZM3.152 15.773l1.137 3.88 3.996-1.102-1.863-2.836-3.27.058Z"/><path fill="#E27625" d="m8.074 10.91-1.113 1.676 3.96.176-.128-4.242-2.719 2.39ZM15.926 10.91 13.16 8.473l-.082 4.289 3.961-.176-1.113-1.676ZM8.285 18.55l2.402-1.148-2.074-1.593-.328 2.742ZM13.313 17.402l2.39 1.149-.328-2.742-2.063 1.593Z"/><path fill="#D7C1B3" d="m15.703 18.55-2.39-1.148.199 1.547-.024.656 2.215-1.054ZM8.285 18.55l2.227 1.055-.012-.656.188-1.547-2.403 1.149Z"/><path fill="#2F343B" d="m10.547 14.777-1.98-.574 1.406-.644.574 1.218ZM13.441 14.777l.586-1.218 1.407.644-1.993.574Z"/><path fill="#CC6228" d="m8.285 18.55.352-2.835-2.215.058 1.863 2.778ZM15.363 15.715l.34 2.836 1.875-2.778-2.215-.058ZM17.04 12.586l-3.962.176.363 2.015.586-1.218 1.407.644 1.605-1.617ZM8.566 14.203l1.407-.644.574 1.218.375-2.015-3.961-.176 1.605 1.617Z"/><path fill="#E27625" d="m6.96 12.586 1.653 3.223-.047-1.606-1.605-1.617ZM15.434 14.203l-.059 1.606 1.664-3.223-1.605 1.617ZM10.922 12.762l-.375 2.015.469 2.391.105-3.14-.2-1.266ZM13.078 12.762l-.2 1.254.095 3.152.468-2.39-.363-2.016Z"/><path fill="#F5841F" d="m13.441 14.777-.468 2.391.34.234 2.062-1.593.059-1.606-1.993.574ZM8.566 14.203l.047 1.606 2.075 1.593.328-.234-.47-2.39-1.98-.575Z"/><path fill="#C0AD9E" d="m13.488 19.605.024-.656-.188-.152h-2.66l-.164.152.012.656-2.227-1.054.774.633 1.582 1.09h2.707l1.582-1.09.773-.633-2.215 1.055Z"/><path fill="#2F343B" d="m13.313 17.402-.34-.234h-1.957l-.329.234-.187 1.547.164-.152h2.66l.188.152-.2-1.547Z"/><path fill="#763E1A" d="m20.402 9.234.586-2.859-.89-2.648-6.785 4.992 2.613 2.191 3.691 1.078.809-.949-.352-.258.563-.504-.434-.34.563-.421-.364-.282ZM3 6.375l.598 2.86-.375.28.562.434-.433.328.562.504-.352.258.82.95 3.692-1.079 2.614-2.191L3.89 3.727 3 6.375Z"/><path fill="#F5841F" d="m19.617 11.988-3.691-1.078 1.113 1.676-1.664 3.223 2.203-.036h3.281l-1.242-3.785ZM8.074 10.91l-3.691 1.078-1.23 3.785h3.269l2.191.036-1.652-3.223 1.113-1.676ZM13.078 12.762l.235-4.043 1.066-2.871h-4.77l1.079 2.87.234 4.044.094 1.265v3.141h1.957l.011-3.14.094-1.266Z"/></svg>