<svg xmlns="http://www.w3.org/2000/svg" width="24" height="24" viewBox="0 0 24 24" fill="currentColor"><g clip-path="url(#a)"><mask id="b" width="24" height="24" x="0" y="0" maskUnits="userSpaceOnUse" style="mask-type:luminance"><path d="M24 0H0v24h24V0Z"/></mask><g mask="url(#b)"><mask id="c" width="24" height="24" x="0" y="0" maskUnits="userSpaceOnUse" style="mask-type:luminance"><path d="M24 0H0v24h24V0Z"/></mask><g mask="url(#c)"><path d="M12.105 0C5.395-.055-.055 5.394 0 12.105c.057 6.516 5.38 11.84 11.895 11.894 6.71.058 12.162-5.394 12.104-12.104C23.945 5.38 18.621.057 12.105 0ZM8.517 5.973a5.724 5.724 0 0 1 1.227 3.55c0 1.16-.344 2.24-.936 3.141h-4.16l3.868-6.692Zm12.684 7.31v.864c0 .057-.03.105-.082.126-.282.12-1.212.552-1.6 1.09-.998 1.39-1.76 3.573-3.464 3.573h-7.11a4.607 4.607 0 0 1-4.622-4.66c0-.065.056-.12.122-.12h3.37c.116 0 .207.094.207.208v.65c0 .346.28.627.627.627h2.556v-1.488H9.459a7.435 7.435 0 0 0 1.602-4.626c0-1.95-.748-3.728-1.972-5.058.74.087 1.449.234 2.116.43v-.414a.777.777 0 1 1 1.555 0v.998c2.386 1.114 3.948 2.962 3.948 5.052 0 1.227-.536 2.368-1.462 3.328a.948.948 0 0 1-.681.288H12.76v1.485h2.265c.488 0 1.364-.926 1.78-1.484 0 0 .017-.028.065-.042.048-.014 4.158-.958 4.158-.958a.136.136 0 0 1 .172.13v.001Z"/></g></g></g><defs><clipPath id="a"><path d="M0 0h24v24H0z"/></clipPath></defs></svg>